<svg xmlns="http://www.w3.org/2000/svg" version="1.1" xmlns:xlink="http://www.w3.org/1999/xlink" xmlns:svgjs="http://svgjs.dev/svgjs" width="2000" height="1500" viewBox="0 0 2000 1500"><rect width="2000" height="1500" fill="#8abcd7"></rect><g transform="matrix(0.75,0,0,0.75,250,0.0009209831212046993)"><svg viewBox="0 0 280 280" data-background-color="#8abcd7" preserveAspectRatio="xMidYMid meet" height="2000" width="2000" xmlns="http://www.w3.org/2000/svg" xmlns:xlink="http://www.w3.org/1999/xlink"><g id="tight-bounds" transform="matrix(1,0,0,1,0,-0.00017191684929684925)"><svg viewBox="0 0 280 280" height="280" width="280"><g><svg viewBox="0 0 280 280" height="280" width="280"><g><svg viewBox="0 0 280 280" height="280" width="280"><g id="textblocktransform"><svg viewBox="0 0 280 280" height="280" width="280" id="textblock"><g><svg viewBox="0 0 280 280" height="280" width="280"><g transform="matrix(1,0,0,1,57.50420886156945,57.50420886156945)"><svg viewBox="0 0 164.9915822768611 164.9915822768611" height="164.9915822768611" width="164.9915822768611"><g><circle r="82" cx="82.49579113843055" cy="82.49579113843055" fill="#ffffff" data-fill-palette-color="accent"></circle><svg xmlns="http://www.w3.org/2000/svg" xmlns:xlink="http://www.w3.org/1999/xlink" version="1.1" x="24.748737341529164" y="24.74873734152917" viewBox="5 5 90 90.12500762939453" enable-background="new 0 0 100 100" xml:space="preserve" height="115.49410759380275" width="115.49410759380275" class="icon-o-0" data-fill-palette-color="quaternary" id="o-0"><rect x="5" y="5" fill="none" width="90" height="90"></rect><g fill="#8abcd7" data-fill-palette-color="quaternary"><path d="M74.883 91.878V43.4h-4.828l-0.803-28.656h1.861V9.338h-8.832V5.125H38.458v4.213h-8.822v5.406h1.981L30.767 43.4h-4.604v48.478h-2.202v3.247H77.38v-3.247H74.883zM73.922 44.361v47.517h-2.511l-0.212-7.55h0.932v-2.71h0.592v-2.696h-0.592-1.083l-0.967-34.561H73.922zM49.326 85.738h-0.96-3.049v6.14H30.292l0.224-7.55h39.722l0.211 7.55H52.374v-6.14H49.326zM51.413 86.699v5.137h-2.086v-5.137H51.413zM48.365 86.699v5.137h-2.087v-5.137H48.365zM38.75 43.4l-0.02 0.961-0.686 34.561h-2.422l0.86-34.561 0.024-0.961 0.713-28.656h2.099L38.75 43.4zM39.692 44.361l0.019-0.961 0.569-28.656h2.097L41.954 43.4l-0.014 0.961-0.51 34.561h-2.424L39.692 44.361zM70.113 79.883h0.962 0.095 0.592v0.774H71.17h-0.072-0.963H30.624h-0.961-0.082-0.594v-0.774h0.594 0.105 0.961H70.113zM42.391 78.922l0.51-34.561 0.014-0.961 0.422-28.656h2.096L45.157 43.4l-0.009 0.961-0.334 34.561H42.391zM45.774 78.922l0.334-34.561 0.009-0.961 0.277-28.656h2.099L48.362 43.4l-0.005 0.961-0.159 34.561H45.774zM51.583 78.922H49.16l0.159-34.561 0.004-0.961 0.132-28.656h2.096L51.566 43.4v0.961L51.583 78.922zM52.514 14.744h2.096L54.77 43.4l0.006 0.961 0.191 34.561h-2.423l-0.017-34.561V43.4L52.514 14.744zM55.57 14.744h2.099L57.975 43.4l0.01 0.961 0.369 34.561h-2.426l-0.191-34.561L55.73 43.4 55.57 14.744zM61.736 78.922h-2.424l-0.367-34.561-0.01-0.961L58.63 14.744h2.099L61.178 43.4l0.016 0.961L61.736 78.922zM61.688 14.744h2.099L64.382 43.4l0.021 0.961 0.719 34.561h-2.423l-0.544-34.561L62.139 43.4 61.688 14.744zM29.634 81.618h0.961H70.16h0.963 0.046v1.655 0.094H70.21 30.544h-0.961L29.634 81.618zM70.086 78.922h-4.004l-0.719-34.561L65.343 43.4l-0.596-28.656h3.544L69.092 43.4l0.027 0.961L70.086 78.922zM39.418 6.086H61.32v3.252H39.418V6.086zM30.596 13.783v-3.484h1.152 7.67H61.32h7.808 1.024v3.484h-0.928-0.961H32.606h-0.961H30.596zM31.7 44.361l0.028-0.961 0.85-28.656h3.681L35.545 43.4l-0.024 0.961-0.86 34.561h-3.985L31.7 44.361zM27.124 44.361h3.615l-1.025 34.561H28.62h-0.594v2.696h0.594v2.71h0.934l-0.224 7.55h-2.207L27.124 44.361 27.124 44.361zM76.419 94.164H24.922v-1.325h1.241 3.139 42.136 3.445 1.536V94.164z" fill="#8abcd7" data-fill-palette-color="quaternary"></path></g></svg></g></svg></g><g><path d="M29.851 98.719c0.103 2.176-0.11 4.104-0.64 5.784v0c-0.599 1.898-1.588 3.278-2.966 4.141-1.373 0.864-3.162 0.949-5.368 0.252v0l-10.523-3.319c-1.661-0.524-2.844-1.154-3.549-1.892-0.705-0.737-1.201-1.68-1.488-2.827v0c-0.242-1.134-0.142-2.4 0.299-3.798v0c0.538-1.706 1.387-3.134 2.547-4.284v0l1.074 0.921c-0.848 1.1-1.448 2.208-1.8 3.324v0c-0.421 1.334-0.468 2.623-0.141 3.868 0.328 1.239 1.442 2.157 3.339 2.757v0l10.754 3.392c1.507 0.475 2.794 0.451 3.862-0.072 1.063-0.532 1.843-1.583 2.338-3.154v0c0.435-1.379 0.634-3.107 0.599-5.184v0z" fill="#ffffff" data-fill-palette-color="primary"></path><path d="M32.735 80.015c2.083 1.005 3.31 2.377 3.68 4.117 0.361 1.742 0.114 3.5-0.742 5.274v0c-0.538 1.114-1.245 2.068-2.121 2.863-0.879 0.8-1.923 1.293-3.132 1.479-1.212 0.191-2.53-0.056-3.953-0.743v0l-9.965-4.809c-2.126-1.026-3.456-2.384-3.991-4.076-0.526-1.695-0.297-3.563 0.689-5.603v0c0.985-2.041 2.327-3.345 4.027-3.914 1.691-0.565 3.548-0.36 5.571 0.617v0zM21.669 76.769c-1.508-0.728-2.855-0.837-4.042-0.327-1.184 0.504-2.125 1.479-2.823 2.927v0c-0.696 1.441-0.872 2.782-0.53 4.022 0.345 1.234 1.272 2.215 2.78 2.943v0l10.209 4.927c1.465 0.707 2.794 0.792 3.987 0.255 1.183-0.534 2.108-1.491 2.775-2.871v0c0.678-1.405 0.867-2.732 0.566-3.983-0.3-1.25-1.213-2.243-2.739-2.979v0z" fill="#ffffff" data-fill-palette-color="primary"></path><path d="M51.464 64.785l-14.837-10.86 11.144 15.906-1.239 1.693-18.507-5.846 14.837 10.859-1.138 1.555-19.411-14.207 1.138-1.555 21.303 6.618-12.701-18.37 1.137-1.555 19.412 14.207z" fill="#ffffff" data-fill-palette-color="primary"></path><path d="M57.072 59.071l-16.34-17.654 6.202-5.741c1.594-1.475 3.235-2.088 4.925-1.837 1.679 0.25 3.282 1.2 4.807 2.848v0c0.982 1.061 1.782 2.093 2.4 3.097 0.618 1.004 0.89 2.14 0.817 3.408-0.073 1.268-0.79 2.532-2.152 3.792v0l-4.966 4.597 5.72 6.181zM56.472 45.58c0.943-0.872 1.413-1.775 1.411-2.708-0.007-0.928-0.253-1.763-0.738-2.505-0.481-0.737-1.086-1.5-1.817-2.29v0c-1.279-1.382-2.52-2.153-3.722-2.313-1.212-0.161-2.324 0.227-3.335 1.162v0l-4.886 4.522 8.099 8.749z" fill="#ffffff" data-fill-palette-color="primary"></path><path d="M79.955 41.125l-7.028-5.395-6.46 4.419 2.542 8.466-1.673 1.145-7.233-24.198 1.507-1.031 20.043 15.432zM62.535 27.527l3.317 10.758 5.585-3.821z" fill="#ffffff" data-fill-palette-color="primary"></path><path d="M98.757 31.808l-20.565-12.973 8.765 18.549-1.742 0.823-10.277-21.75 1.742-0.823 20.565 12.973-8.765-18.548 1.742-0.823 10.277 21.749z" fill="#ffffff" data-fill-palette-color="primary"></path><path d="M108.567 28.631l-6.529-21.323-2.219 0.606-0.493-1.61 4.04-1.238 7.043 23.001z" fill="#ffffff" data-fill-palette-color="primary"></path><path d="M116.827 26.706l-4.279-23.671 11.295-2.042 0.317 1.757-9.399 1.699 1.438 7.95 6.451-1.166-0.31 1.972-5.806 1.05 1.884 10.421 9.33-1.686 0.305 1.687z" fill="#ffffff" data-fill-palette-color="primary"></path><path d="M133.993 18.388c0.08 0.772 0.384 1.51 0.913 2.215 0.529 0.704 1.248 1.271 2.156 1.701 0.915 0.436 1.957 0.645 3.127 0.626v0c1.761-0.028 3.224-0.448 4.388-1.261 1.171-0.812 1.742-2.075 1.715-3.79v0c-0.016-1.008-0.315-1.844-0.898-2.507-0.582-0.67-1.304-1.2-2.163-1.59-0.853-0.383-2.017-0.829-3.492-1.336v0c-1.589-0.519-2.861-1.007-3.816-1.462-0.955-0.456-1.769-1.078-2.441-1.868-0.665-0.79-1.007-1.816-1.027-3.08v0c-0.016-1.008 0.258-1.968 0.822-2.878 0.557-0.917 1.409-1.663 2.556-2.24 1.147-0.583 2.568-0.888 4.263-0.915v0c1.123-0.018 2.052 0.048 2.787 0.198 0.735 0.15 1.482 0.4 2.241 0.751v0l-0.556 1.834c-1.315-0.645-2.772-0.954-4.372-0.929v0c-1.768 0.028-3.171 0.417-4.208 1.167-1.044 0.75-1.555 1.777-1.535 3.081v0c0.013 0.827 0.286 1.515 0.82 2.065 0.54 0.556 1.196 1 1.968 1.33 0.772 0.331 1.847 0.727 3.227 1.189v0c1.683 0.545 3.043 1.054 4.079 1.529 1.043 0.474 1.932 1.159 2.666 2.056 0.734 0.896 1.112 2.03 1.133 3.401v0c0.034 2.104-0.608 3.803-1.926 5.095-1.318 1.292-3.375 1.96-6.172 2.005v0c-1.694 0.027-3.148-0.263-4.361-0.869-1.214-0.613-2.141-1.412-2.782-2.397-0.648-0.985-1.004-2.015-1.068-3.09v0z" fill="#ffffff" data-fill-palette-color="primary"></path><path d="M180.428 30.836l4.648-17.789-10.698 16.208-2.03-0.53-1.363-19.36-4.648 17.789-1.864-0.487 6.081-23.273 1.864 0.487 1.673 22.245 12.418-18.563 1.864 0.487-6.081 23.273z" fill="#ffffff" data-fill-palette-color="primary"></path><path d="M203.107 34.222c-0.998 2.087-2.365 3.318-4.103 3.695-1.741 0.368-3.5 0.127-5.277-0.723v0c-1.116-0.534-2.073-1.237-2.87-2.11-0.803-0.876-1.3-1.918-1.49-3.127-0.196-1.212 0.047-2.53 0.728-3.956v0l4.773-9.982c1.018-2.129 2.372-3.464 4.061-4.006 1.693-0.532 3.561-0.31 5.606 0.668v0c2.044 0.977 3.354 2.315 3.928 4.013 0.571 1.689 0.372 3.547-0.596 5.573v0zM206.313 23.145c0.722-1.51 0.826-2.858 0.312-4.044-0.508-1.182-1.487-2.12-2.937-2.812v0c-1.444-0.69-2.785-0.862-4.024-0.516-1.233 0.35-2.21 1.28-2.932 2.79v0l-4.89 10.228c-0.702 1.468-0.782 2.797-0.241 3.988 0.538 1.181 1.499 2.103 2.882 2.764v0c1.407 0.673 2.735 0.857 3.984 0.552 1.249-0.305 2.239-1.222 2.969-2.75v0z" fill="#ffffff" data-fill-palette-color="primary"></path><path d="M217.288 51.949l1.348-24.277-11.955 16.672-1.565-1.123 14.017-19.549 1.566 1.123-1.348 24.277 11.954-16.672 1.566 1.123-14.018 19.548z" fill="#ffffff" data-fill-palette-color="primary"></path><path d="M224.83 58.98l15.466-16.065-1.608-1.646 1.168-1.213 3.045 2.931-16.683 17.329z" fill="#ffffff" data-fill-palette-color="primary"></path><path d="M232.434 67.68l17.406-13.988-3.658-4.552 1.344-1.08 8.656 10.771-1.345 1.08-3.79-4.717-17.407 13.988z" fill="#ffffff" data-fill-palette-color="primary"></path><path d="M251.876 85.131c-1.968 1.215-3.785 1.511-5.45 0.888-1.663-0.633-3.012-1.787-4.047-3.464v0c-0.65-1.053-1.074-2.162-1.272-3.328-0.202-1.171-0.055-2.317 0.439-3.436 0.491-1.125 1.409-2.102 2.753-2.932v0l9.414-5.813c2.008-1.24 3.869-1.63 5.583-1.171 1.712 0.468 3.163 1.667 4.353 3.595v0c1.19 1.928 1.568 3.762 1.132 5.501-0.434 1.73-1.606 3.184-3.517 4.364v0zM260.565 77.55c1.425-0.88 2.241-1.957 2.45-3.232 0.212-1.269-0.104-2.587-0.948-3.954v0c-0.841-1.362-1.876-2.232-3.105-2.611-1.226-0.373-2.551-0.12-3.976 0.76v0l-9.646 5.955c-1.385 0.855-2.171 1.929-2.36 3.224-0.187 1.285 0.123 2.579 0.928 3.883v0c0.82 1.327 1.837 2.201 3.052 2.621 1.215 0.419 2.543 0.184 3.985-0.707v0z" fill="#ffffff" data-fill-palette-color="primary"></path><path d="M253.607 105.871l6.807-5.899c-0.216-0.355-0.419-0.766-0.608-1.233v0l-2.539-6.274-7.807 3.159-0.722-1.785 22.298-9.024 3.171 7.835c0.815 2.013 0.805 3.765-0.028 5.256-0.829 1.482-2.285 2.644-4.367 3.486v0c-1.596 0.646-3.078 1.042-4.447 1.19-1.375 0.15-2.618-0.232-3.728-1.146v0l-7.292 6.259zM261.566 98.059c0.482 1.19 1.159 1.95 2.032 2.279 0.87 0.322 1.738 0.388 2.604 0.197 0.86-0.188 1.788-0.484 2.785-0.887v0c1.745-0.706 2.906-1.593 3.482-2.661 0.58-1.076 0.612-2.253 0.095-3.531v0l-2.497-6.17-11.051 4.472z" fill="#ffffff" data-fill-palette-color="primary"></path><path d="M14.935 192.8c-1.333-1.723-2.265-3.424-2.795-5.104v0c-0.599-1.898-0.581-3.596 0.054-5.094 0.628-1.495 2.045-2.591 4.251-3.287v0l10.523-3.319c1.661-0.524 2.992-0.686 3.992-0.487 1.001 0.199 1.947 0.686 2.841 1.462v0c0.848 0.79 1.493 1.884 1.934 3.282v0c0.538 1.706 0.662 3.362 0.372 4.969v0l-1.407-0.137c0.063-1.388-0.082-2.639-0.434-3.755v0c-0.421-1.334-1.122-2.417-2.104-3.25-0.98-0.826-2.419-0.94-4.317-0.341v0l-10.753 3.392c-1.507 0.475-2.547 1.234-3.122 2.275-0.566 1.046-0.601 2.354-0.105 3.925v0c0.435 1.379 1.263 2.908 2.484 4.589v0z" fill="#ffffff" data-fill-palette-color="primary"></path><path d="M28.677 208.757c-2.083 1.005-3.921 1.112-5.512 0.32-1.589-0.801-2.811-2.089-3.668-3.864v0c-0.538-1.114-0.845-2.261-0.921-3.441-0.08-1.186 0.184-2.31 0.791-3.372 0.604-1.068 1.618-1.946 3.042-2.632v0l9.964-4.809c2.126-1.026 4.017-1.222 5.674-0.588 1.654 0.643 2.973 1.984 3.959 4.025v0c0.985 2.041 1.171 3.903 0.557 5.588-0.61 1.676-1.926 3.001-3.949 3.978v0zM38.104 202.114c1.508-0.728 2.431-1.715 2.77-2.961 0.342-1.24 0.164-2.584-0.534-4.031v0c-0.696-1.441-1.635-2.414-2.819-2.918-1.181-0.498-2.525-0.383-4.033 0.345v0l-10.21 4.927c-1.465 0.707-2.359 1.695-2.681 2.962-0.318 1.259-0.144 2.578 0.522 3.959v0c0.678 1.405 1.6 2.379 2.765 2.922 1.165 0.543 2.511 0.446 4.037-0.291v0z" fill="#ffffff" data-fill-palette-color="primary"></path><path d="M37.573 232.196l14.837-10.859-18.531 5.813-1.239-1.693 11.168-15.873-14.837 10.86-1.138-1.555 19.411-14.207 1.138 1.554-12.749 18.306 21.351-6.553 1.138 1.554-19.412 14.208z" fill="#ffffff" data-fill-palette-color="primary"></path><path d="M45.378 240.377l16.34-17.654 6.203 5.742c1.594 1.475 2.331 3.065 2.211 4.767-0.12 1.694-0.943 3.365-2.468 5.013v0c-0.982 1.061-1.95 1.938-2.903 2.632-0.953 0.693-2.065 1.053-3.335 1.078-1.269 0.025-2.585-0.592-3.947-1.853v0l-4.966-4.597-5.721 6.18zM58.783 238.738c0.943 0.872 1.879 1.272 2.808 1.198 0.925-0.079 1.738-0.388 2.441-0.93 0.698-0.536 1.412-1.199 2.143-1.988v0c1.279-1.382 1.952-2.678 2.019-3.889 0.067-1.221-0.405-2.299-1.417-3.236v0l-4.885-4.521-8.098 8.748z" fill="#ffffff" data-fill-palette-color="primary"></path><path d="M70.234 259.896l2.483-8.506-6.459-4.419-6.97 5.435-1.673-1.145 19.935-15.507 1.506 1.031-7.124 24.272zM76.599 238.734l-8.827 6.988 5.586 3.821z" fill="#ffffff" data-fill-palette-color="primary"></path><path d="M91.403 270.57l-3.036-24.124-8.765 18.549-1.741-0.823 10.277-21.75 1.741 0.823 3.036 24.125 8.765-18.549 1.741 0.823-10.277 21.749z" fill="#ffffff" data-fill-palette-color="primary"></path><path d="M103.527 274.643l6.529-21.323-2.178-0.741 0.493-1.61 4.041 1.237-7.043 23.001z" fill="#ffffff" data-fill-palette-color="primary"></path><path d="M113.765 277.047l4.279-23.671 11.295 2.042-0.317 1.757-9.399-1.699-1.438 7.95 6.452 1.166-0.981 1.739-5.806-1.049-1.884 10.421 9.329 1.687-0.305 1.687z" fill="#ffffff" data-fill-palette-color="primary"></path><path d="M133.914 273.415c0.055 0.774 0.336 1.522 0.842 2.243 0.506 0.721 1.206 1.31 2.1 1.768 0.9 0.465 1.936 0.707 3.105 0.726v0c1.761 0.028 3.237-0.345 4.426-1.12 1.196-0.774 1.808-2.019 1.835-3.733v0c0.016-1.008-0.256-1.853-0.817-2.535-0.561-0.688-1.265-1.241-2.112-1.658-0.841-0.41-1.99-0.892-3.447-1.447v0c-1.571-0.57-2.827-1.097-3.767-1.583-0.94-0.486-1.734-1.134-2.38-1.944-0.639-0.81-0.949-1.848-0.929-3.112v0c0.016-1.008 0.32-1.959 0.913-2.85 0.586-0.899 1.462-1.618 2.627-2.157 1.165-0.546 2.595-0.806 4.289-0.779v0c1.123 0.018 2.049 0.113 2.78 0.286 0.73 0.173 1.469 0.447 2.216 0.822v0l-0.614 1.816c-1.294-0.686-2.741-1.042-4.341-1.068v0c-1.768-0.028-3.183 0.316-4.243 1.032-1.067 0.716-1.611 1.726-1.632 3.031v0c-0.013 0.827 0.238 1.524 0.754 2.09 0.522 0.573 1.164 1.037 1.924 1.392 0.761 0.355 1.823 0.786 3.187 1.292v0c1.665 0.598 3.008 1.151 4.029 1.658 1.028 0.507 1.894 1.22 2.599 2.139 0.705 0.919 1.046 2.064 1.024 3.436v0c-0.034 2.104-0.729 3.781-2.087 5.031-1.358 1.249-3.436 1.852-6.233 1.807v0c-1.694-0.027-3.138-0.363-4.331-1.007-1.193-0.651-2.095-1.479-2.705-2.485-0.616-1.005-0.939-2.046-0.969-3.122v0z" fill="#ffffff" data-fill-palette-color="primary"></path><path d="M184.78 272.633l-4.648-17.789-1.402 19.37-2.03 0.53-10.659-16.219 4.648 17.79-1.864 0.487-6.081-23.274 1.864-0.487 12.34 18.584 1.751-22.266 1.864-0.487 6.081 23.274z" fill="#ffffff" data-fill-palette-color="primary"></path><path d="M205.051 256.657c0.998 2.087 1.098 3.925 0.3 5.514-0.807 1.586-2.099 2.804-3.877 3.653v0c-1.116 0.534-2.264 0.837-3.444 0.909-1.186 0.075-2.309-0.193-3.37-0.804-1.066-0.608-1.94-1.625-2.621-3.051v0l-4.772-9.982c-1.018-2.129-1.207-4.021-0.568-5.676 0.649-1.652 1.995-2.966 4.04-3.944v0c2.044-0.977 3.908-1.157 5.59-0.537 1.673 0.616 2.994 1.937 3.963 3.963v0zM198.442 247.206c-0.722-1.51-1.706-2.438-2.951-2.781-1.239-0.347-2.583-0.173-4.033 0.52v0c-1.444 0.69-2.42 1.626-2.928 2.808-0.502 1.179-0.392 2.524 0.331 4.034v0l4.89 10.228c0.702 1.468 1.686 2.365 2.952 2.692 1.257 0.323 2.578 0.154 3.961-0.508v0c1.407-0.673 2.385-1.591 2.931-2.754 0.547-1.163 0.455-2.509-0.276-4.038v0z" fill="#ffffff" data-fill-palette-color="primary"></path><path d="M227.319 248.855l-22.561-9.067 11.955 16.672-1.566 1.122-14.017-19.548 1.565-1.123 22.561 9.067-11.955-16.672 1.566-1.123 14.018 19.549z" fill="#ffffff" data-fill-palette-color="primary"></path><path d="M236.769 240.235l-15.466-16.065-1.706 1.544-1.168-1.214 3.044-2.931 16.684 17.33z" fill="#ffffff" data-fill-palette-color="primary"></path><path d="M245.852 229.917l-17.406-13.988-3.658 4.552-1.345-1.08 8.656-10.771 1.344 1.08-3.79 4.717 17.406 13.988z" fill="#ffffff" data-fill-palette-color="primary"></path><path d="M255.71 204.05c1.968 1.215 3.047 2.707 3.235 4.474 0.179 1.77-0.248 3.493-1.283 5.17v0c-0.65 1.053-1.452 1.929-2.405 2.629-0.957 0.705-2.046 1.087-3.269 1.147-1.226 0.065-2.511-0.317-3.855-1.148v0l-9.414-5.812c-2.008-1.24-3.191-2.729-3.549-4.467-0.348-1.74 0.073-3.574 1.264-5.502v0c1.19-1.928 2.66-3.087 4.41-3.476 1.741-0.387 3.566 0.009 5.477 1.188v0zM245.039 199.678c-1.425-0.88-2.753-1.127-3.987-0.743-1.23 0.379-2.266 1.252-3.111 2.62v0c-0.841 1.362-1.155 2.677-0.942 3.946 0.216 1.263 1.036 2.335 2.46 3.214v0l9.647 5.955c1.385 0.855 2.698 1.077 3.939 0.666 1.232-0.409 2.251-1.265 3.056-2.57v0c0.82-1.327 1.145-2.628 0.975-3.902-0.17-1.274-0.975-2.356-2.417-3.246v0z" fill="#ffffff" data-fill-palette-color="primary"></path><path d="M269.565 187.4l-8.994-0.495c-0.092 0.405-0.232 0.842-0.421 1.309v0l-2.539 6.274 7.807 3.159-0.723 1.786-22.298-9.024 3.17-7.835c0.815-2.013 2.04-3.266 3.675-3.757 1.626-0.488 3.481-0.311 5.562 0.532v0c1.596 0.646 2.937 1.392 4.024 2.237 1.093 0.848 1.72 1.987 1.882 3.417v0l9.592 0.574zM258.413 187.479c0.482-1.19 0.523-2.207 0.124-3.051-0.401-0.837-0.979-1.488-1.734-1.953-0.749-0.463-1.621-0.896-2.618-1.299v0c-1.745-0.706-3.196-0.876-4.353-0.51-1.165 0.37-2.006 1.194-2.523 2.472v0l-2.497 6.17 11.051 4.472z" fill="#ffffff" data-fill-palette-color="primary"></path><path d="M11.001 143.407c0-1.557 1.262-2.819 2.82-2.819 1.557 0 2.819 1.262 2.819 2.819 0 1.557-1.262 2.819-2.819 2.819-1.557 0-2.819-1.262-2.82-2.819z" fill="#ffffff" data-fill-palette-color="primary"></path><path d="M265.172 143.407c0-1.557 1.262-2.819 2.819-2.819 1.557 0 2.819 1.262 2.82 2.819 0 1.557-1.262 2.819-2.82 2.819-1.557 0-2.819-1.262-2.819-2.819z" fill="#ffffff" data-fill-palette-color="primary"></path></g></svg></g></svg></g></svg></g></svg></g><defs></defs></svg><rect width="280" height="280" fill="none" stroke="none" visibility="hidden"></rect></g></svg></g></svg>