<svg xmlns="http://www.w3.org/2000/svg" version="1.1" xmlns:xlink="http://www.w3.org/1999/xlink" xmlns:svgjs="http://svgjs.dev/svgjs" width="2000" height="540" viewBox="0 0 2000 540"><g transform="matrix(1,0,0,1,-1.2121212121212466,-0.08010763315536451)"><svg viewBox="0 0 396 107" data-background-color="#ffffff" preserveAspectRatio="xMidYMid meet" height="540" width="2000" xmlns="http://www.w3.org/2000/svg" xmlns:xlink="http://www.w3.org/1999/xlink"><g id="tight-bounds" transform="matrix(1,0,0,1,0.2400000000000091,0.015873179162269935)"><svg viewBox="0 0 395.52 106.96825364167549" height="106.96825364167549" width="395.52"><g><svg viewBox="0 0 558.0347919687126 150.92032556682057" height="106.96825364167549" width="395.52"><g transform="matrix(1,0,0,1,162.5147919687127,2.6573043334244915)"><svg viewBox="0 0 395.52 145.60571689997158" height="145.60571689997158" width="395.52"><g id="textblocktransform"><svg viewBox="0 0 395.52 145.60571689997158" height="145.60571689997158" width="395.52" id="textblock"><g><rect width="395.52" height="123.78092428287417" fill="none" stroke-width="9.018103199999999" stroke="#010c80" data-fill-palette-color="none" data-stroke-palette-color="tertiary"></rect><rect width="395.52" height="21.824792617097412" y="123.78092428287417" fill="#010c80" data-fill-palette-color="tertiary"></rect></g><g><svg viewBox="0 0 395.52 123.78092428287417" height="123.78092428287417" width="395.52"><g transform="matrix(1,0,0,1,23.607599999999998,23.607599999999998)"><svg width="348.3048" viewBox="110.89997863769531 -35 352.10003662109375 74.4000015258789" height="76.56572428287417" data-palette-color="#010c80"><svg></svg><svg></svg><g class="wordmark-text-0" data-fill-palette-color="primary" id="text-0"><path xmlns="http://www.w3.org/2000/svg" d="M140.65-12.4l5.2 4.25c-1.833 2.8-4.107 4.967-6.82 6.5-2.72 1.533-5.847 2.3-9.38 2.3v0c-3.467 0-6.633-0.783-9.5-2.35-2.867-1.567-5.123-3.7-6.77-6.4-1.653-2.7-2.48-5.683-2.48-8.95v0c0-3.467 0.767-6.567 2.3-9.3 1.533-2.733 3.6-4.86 6.2-6.38 2.6-1.513 5.417-2.27 8.45-2.27v0c3.933 0 7.2 1.217 9.8 3.65v0-2.95h7.25v11.95l-5.35 0.5c-0.933-2-2.267-3.633-4-4.9-1.733-1.267-3.867-1.9-6.4-1.9v0c-1.7 0-3.3 0.457-4.8 1.37-1.5 0.92-2.707 2.247-3.62 3.98-0.92 1.733-1.38 3.783-1.38 6.15v0c0 2.067 0.46 3.957 1.38 5.67 0.913 1.72 2.153 3.08 3.72 4.08 1.567 1 3.3 1.5 5.2 1.5v0c2.533 0 4.633-0.543 6.3-1.63 1.667-1.08 3.233-2.703 4.7-4.87zM167.2 0.65c-3.533 0-6.733-0.793-9.6-2.38-2.867-1.58-5.107-3.73-6.72-6.45-1.62-2.713-2.43-5.703-2.43-8.97v0c0-3.267 0.81-6.267 2.43-9 1.613-2.733 3.853-4.893 6.72-6.48 2.867-1.58 6.067-2.37 9.6-2.37v0c3.5 0 6.673 0.79 9.52 2.37 2.853 1.587 5.087 3.747 6.7 6.48 1.62 2.733 2.43 5.733 2.43 9v0c0 3.267-0.81 6.257-2.43 8.97-1.613 2.72-3.847 4.87-6.7 6.45-2.847 1.587-6.02 2.38-9.52 2.38zM167.2-5.9c2.067 0 3.877-0.51 5.43-1.53 1.547-1.013 2.727-2.38 3.54-4.1 0.82-1.713 1.23-3.587 1.23-5.62v0c0-2.067-0.41-3.96-1.23-5.68-0.813-1.713-1.993-3.08-3.54-4.1-1.553-1.013-3.363-1.52-5.43-1.52v0c-2.133 0-3.977 0.517-5.53 1.55-1.547 1.033-2.727 2.407-3.54 4.12-0.82 1.72-1.23 3.597-1.23 5.63v0c0 2.067 0.41 3.957 1.23 5.67 0.813 1.72 1.993 3.08 3.54 4.08 1.553 1 3.397 1.5 5.53 1.5zM241.6-27.95h-5.6v21.6h5.6v6.35h-18.75v-6.35h5.25v-7.45c0-2.433 0.383-5.8 1.15-10.1v0l-11.85 23.95h-4.45l-11.6-23.4c0.6 4.2 0.9 7.383 0.9 9.55v0 7.45h5.25v6.35h-18.35v-6.35h5.6v-21.6h-5.6v-6.35h14.45l11.85 23.65 11.65-23.65h14.5zM265.05-34.3c2.733 0 5.143 0.457 7.23 1.37 2.08 0.92 3.697 2.22 4.85 3.9 1.147 1.687 1.72 3.63 1.72 5.83v0c0 2.3-0.557 4.323-1.67 6.07-1.12 1.753-2.72 3.113-4.8 4.08-2.087 0.967-4.497 1.45-7.23 1.45v0h-6.7v5.25h6.15v6.35h-19.7v-6.35h5.6v-21.6h-5.6v-6.35zM264.7-17.95c4.1 0 6.15-1.783 6.15-5.35v0c0-1.7-0.617-2.9-1.85-3.6-1.233-0.7-2.733-1.05-4.5-1.05v0h-6.05v9.95zM314.7-6.35h4.15v6.35h-17.5v-6.35h5.05l-1.9-5h-12.55l-1.85 5h5.55v6.35h-17.15v-6.35h4.05l9.2-21.65h-3.55v-6.3h20.75v6.3h-3.5zM294.05-16.95h8.35l-4.15-11.05h-0.05zM365.65-34.3v6.35h-5.3v28.25l-4.35 0.05-21.65-23.85v17.15h5.6v6.35h-18.8v-6.35h5.6v-21.6h-5.6v-6.35h13.2l18.6 21.05v-14.7h-5.6v-6.35zM387.65-27.95h-5.65v21.6h5.65v6.35h-19.35v-6.35h5.6v-21.6h-5.6v-6.35h19.35zM426.35-21.55h-7.05v-6.4h-14.85v8.35h5.25v-3.95h5.95v13.6h-5.95v-3.95h-5.25v7.55h14.85v-6.4h7.05v12.75h-35.4v-6.35h5.55v-21.6h-5.55v-6.35h35.4zM449.1-20.75c4.4 1.267 7.817 2.783 10.25 4.55 2.433 1.767 3.65 4.117 3.65 7.05v0c0 2.033-0.517 3.783-1.55 5.25-1.033 1.467-2.45 2.59-4.25 3.37-1.8 0.787-3.833 1.18-6.1 1.18v0c-2.133 0-4.183-0.417-6.15-1.25-1.967-0.833-3.917-2.017-5.85-3.55v0 4.1h-7.05v-12.5l5-0.25c1.733 2.1 3.9 3.807 6.5 5.12 2.6 1.32 4.933 1.98 7 1.98v0c1.233 0 2.207-0.217 2.92-0.65 0.72-0.433 1.08-1.083 1.08-1.95v0c0-1.033-0.817-1.983-2.45-2.85-1.633-0.867-4.467-1.85-8.5-2.95v0c-4-1.1-6.917-2.543-8.75-4.33-1.833-1.78-2.75-4.02-2.75-6.72v0c0-1.967 0.55-3.693 1.65-5.18 1.1-1.48 2.55-2.627 4.35-3.44 1.8-0.82 3.717-1.23 5.75-1.23v0c4.1 0 7.533 1.283 10.3 3.85v0-3.15h7.05v12.15l-4.75 0.25c-1.1-2.133-2.623-3.793-4.57-4.98-1.953-1.18-3.947-1.77-5.98-1.77v0c-1.6 0-2.893 0.283-3.88 0.85-0.98 0.567-1.47 1.333-1.47 2.3v0c0 0.933 0.617 1.74 1.85 2.42 1.233 0.687 3.467 1.463 6.7 2.33z" fill="#010c80" fill-rule="nonzero" stroke="none" stroke-width="1" stroke-linecap="butt" stroke-linejoin="miter" stroke-miterlimit="10" stroke-dasharray="" stroke-dashoffset="0" font-family="none" font-weight="none" font-size="none" text-anchor="none" style="mix-blend-mode: normal" data-fill-palette-color="primary" opacity="1"></path><path xmlns="http://www.w3.org/2000/svg" d="M196.75 10.75h-5.6v21.6h5.6v6.35h-18.75v-6.35h5.25v-7.45c0-2.433 0.383-5.8 1.15-10.1v0l-11.85 23.95h-4.45l-11.6-23.4c0.6 4.2 0.9 7.383 0.9 9.55v0 7.45h5.25v6.35h-18.35v-6.35h5.6v-21.6h-5.6v-6.35h14.45l11.85 23.65 11.65-23.65h14.5zM218.45 39.35c-3.533 0-6.733-0.793-9.6-2.38-2.867-1.58-5.107-3.73-6.72-6.45-1.62-2.713-2.43-5.703-2.43-8.97v0c0-3.267 0.81-6.267 2.43-9 1.613-2.733 3.853-4.893 6.72-6.48 2.867-1.58 6.067-2.37 9.6-2.37v0c3.5 0 6.677 0.79 9.53 2.37 2.847 1.587 5.08 3.747 6.7 6.48 1.613 2.733 2.42 5.733 2.42 9v0c0 3.267-0.807 6.257-2.42 8.97-1.62 2.72-3.853 4.87-6.7 6.45-2.853 1.587-6.03 2.38-9.53 2.38zM218.45 32.8c2.067 0 3.873-0.51 5.42-1.53 1.553-1.013 2.74-2.38 3.56-4.1 0.813-1.713 1.22-3.587 1.22-5.62v0c0-2.067-0.407-3.96-1.22-5.68-0.82-1.713-2.007-3.08-3.56-4.1-1.547-1.013-3.353-1.52-5.42-1.52v0c-2.133 0-3.973 0.517-5.52 1.55-1.553 1.033-2.74 2.407-3.56 4.12-0.813 1.72-1.22 3.597-1.22 5.63v0c0 2.067 0.407 3.957 1.22 5.67 0.82 1.72 2.007 3.08 3.56 4.08 1.547 1 3.387 1.5 5.52 1.5zM284.9 4.4v6.35h-5.3v28.25l-4.35 0.05-21.65-23.85v17.15h5.6v6.35h-18.8v-6.35h5.6v-21.6h-5.6v-6.35h13.2l18.6 21.05v-14.7h-5.6v-6.35zM306.9 10.75h-5.65v21.6h5.65v6.35h-19.35v-6.35h5.6v-21.6h-5.6v-6.35h19.35zM309.85 4.4h36.85v13.2h-7.05v-6.85h-7.3v21.6h5.45v6.35h-19.05v-6.35h5.5v-21.6h-7.35v6.85h-7.05zM368.1 39.35c-3.533 0-6.733-0.793-9.6-2.38-2.867-1.58-5.107-3.73-6.72-6.45-1.62-2.713-2.43-5.703-2.43-8.97v0c0-3.267 0.81-6.267 2.43-9 1.613-2.733 3.853-4.893 6.72-6.48 2.867-1.58 6.067-2.37 9.6-2.37v0c3.5 0 6.677 0.79 9.53 2.37 2.847 1.587 5.08 3.747 6.7 6.48 1.613 2.733 2.42 5.733 2.42 9v0c0 3.267-0.807 6.257-2.42 8.97-1.62 2.72-3.853 4.87-6.7 6.45-2.853 1.587-6.03 2.38-9.53 2.38zM368.1 32.8c2.067 0 3.877-0.51 5.43-1.53 1.547-1.013 2.73-2.38 3.55-4.1 0.813-1.713 1.22-3.587 1.22-5.62v0c0-2.067-0.407-3.96-1.22-5.68-0.82-1.713-2.003-3.08-3.55-4.1-1.553-1.013-3.363-1.52-5.43-1.52v0c-2.133 0-3.973 0.517-5.52 1.55-1.553 1.033-2.737 2.407-3.55 4.12-0.82 1.72-1.23 3.597-1.23 5.63v0c0 2.067 0.41 3.957 1.23 5.67 0.813 1.72 1.997 3.08 3.55 4.08 1.547 1 3.387 1.5 5.52 1.5zM425.9 30.55l3.7 5.25c-0.967 1.067-2.04 1.933-3.22 2.6-1.187 0.667-2.663 1-4.43 1v0c-3.2 0-5.86-1.11-7.98-3.33-2.113-2.213-3.703-5.67-4.77-10.37v0l-0.15-0.65h-5.3v7.35h5.35v6.3h-19.05v-6.35h5.6v-21.6h-5.6v-6.35h20.55c4.133 0 7.45 0.89 9.95 2.67 2.5 1.787 3.75 4.313 3.75 7.58v0c0 2.6-0.71 4.74-2.13 6.42-1.413 1.687-3.42 2.847-6.02 3.48v0l0.25 0.75c0.8 2.5 1.71 4.24 2.73 5.22 1.013 0.987 2.12 1.48 3.32 1.48v0c0.733 0 1.367-0.127 1.9-0.38 0.533-0.247 1.05-0.603 1.55-1.07zM403.75 10.75v8.35h7.1c1.4 0 2.66-0.35 3.78-1.05 1.113-0.7 1.67-1.833 1.67-3.4v0c0-1.4-0.543-2.4-1.63-3-1.08-0.6-2.353-0.9-3.82-0.9v0z" fill="#010c80" fill-rule="nonzero" stroke="none" stroke-width="1" stroke-linecap="butt" stroke-linejoin="miter" stroke-miterlimit="10" stroke-dasharray="" stroke-dashoffset="0" font-family="none" font-weight="none" font-size="none" text-anchor="none" style="mix-blend-mode: normal" data-fill-palette-color="primary" opacity="1"></path></g></svg></g></svg></g></svg></g></svg></g><g><svg viewBox="0 0 150.7109919687127 150.92032556682057" height="150.92032556682057" width="150.7109919687127"><g><svg xmlns="http://www.w3.org/2000/svg" xmlns:xlink="http://www.w3.org/1999/xlink" version="1.1" x="0" y="0" viewBox="5 5 90 90.12500762939453" enable-background="new 0 0 100 100" xml:space="preserve" height="150.92032556682057" width="150.7109919687127" class="icon-icon-0" data-fill-palette-color="accent" id="icon-0"><rect x="5" y="5" fill="none" width="90" height="90"></rect><g fill="#77d4fc" data-fill-palette-color="accent"><path d="M74.883 91.878V43.4h-4.828l-0.803-28.656h1.861V9.338h-8.832V5.125H38.458v4.213h-8.822v5.406h1.981L30.767 43.4h-4.604v48.478h-2.202v3.247H77.38v-3.247H74.883zM73.922 44.361v47.517h-2.511l-0.212-7.55h0.932v-2.71h0.592v-2.696h-0.592-1.083l-0.967-34.561H73.922zM49.326 85.738h-0.96-3.049v6.14H30.292l0.224-7.55h39.722l0.211 7.55H52.374v-6.14H49.326zM51.413 86.699v5.137h-2.086v-5.137H51.413zM48.365 86.699v5.137h-2.087v-5.137H48.365zM38.75 43.4l-0.02 0.961-0.686 34.561h-2.422l0.86-34.561 0.024-0.961 0.713-28.656h2.099L38.75 43.4zM39.692 44.361l0.019-0.961 0.569-28.656h2.097L41.954 43.4l-0.014 0.961-0.51 34.561h-2.424L39.692 44.361zM70.113 79.883h0.962 0.095 0.592v0.774H71.17h-0.072-0.963H30.624h-0.961-0.082-0.594v-0.774h0.594 0.105 0.961H70.113zM42.391 78.922l0.51-34.561 0.014-0.961 0.422-28.656h2.096L45.157 43.4l-0.009 0.961-0.334 34.561H42.391zM45.774 78.922l0.334-34.561 0.009-0.961 0.277-28.656h2.099L48.362 43.4l-0.005 0.961-0.159 34.561H45.774zM51.583 78.922H49.16l0.159-34.561 0.004-0.961 0.132-28.656h2.096L51.566 43.4v0.961L51.583 78.922zM52.514 14.744h2.096L54.77 43.4l0.006 0.961 0.191 34.561h-2.423l-0.017-34.561V43.4L52.514 14.744zM55.57 14.744h2.099L57.975 43.4l0.01 0.961 0.369 34.561h-2.426l-0.191-34.561L55.73 43.4 55.57 14.744zM61.736 78.922h-2.424l-0.367-34.561-0.01-0.961L58.63 14.744h2.099L61.178 43.4l0.016 0.961L61.736 78.922zM61.688 14.744h2.099L64.382 43.4l0.021 0.961 0.719 34.561h-2.423l-0.544-34.561L62.139 43.4 61.688 14.744zM29.634 81.618h0.961H70.16h0.963 0.046v1.655 0.094H70.21 30.544h-0.961L29.634 81.618zM70.086 78.922h-4.004l-0.719-34.561L65.343 43.4l-0.596-28.656h3.544L69.092 43.4l0.027 0.961L70.086 78.922zM39.418 6.086H61.32v3.252H39.418V6.086zM30.596 13.783v-3.484h1.152 7.67H61.32h7.808 1.024v3.484h-0.928-0.961H32.606h-0.961H30.596zM31.7 44.361l0.028-0.961 0.85-28.656h3.681L35.545 43.4l-0.024 0.961-0.86 34.561h-3.985L31.7 44.361zM27.124 44.361h3.615l-1.025 34.561H28.62h-0.594v2.696h0.594v2.71h0.934l-0.224 7.55h-2.207L27.124 44.361 27.124 44.361zM76.419 94.164H24.922v-1.325h1.241 3.139 42.136 3.445 1.536V94.164z" fill="#77d4fc" data-fill-palette-color="accent"></path></g></svg></g></svg></g></svg></g><defs></defs></svg><rect width="395.52" height="106.96825364167549" fill="none" stroke="none" visibility="hidden"></rect></g></svg></g></svg>